HIERARCHY
ROOT pelvis
{
  OFFSET 0 100 0
  CHANNELS 6 Xposition Yposition Zposition Zrotation Xrotation Yrotation
  JOINT pelvis_right_femur
  {
    OFFSET -10.78128 -3.44521 -0.5502486
    CHANNELS 3 Zrotation Xrotation Yrotation
    JOINT right_femur_tibia
    {
      OFFSET -0.8047443 -44.0398 -0.1307829
      CHANNELS 3 Zrotation Xrotation Yrotation
      JOINT right_tibia_foot
      {
        OFFSET 3.006224 -47.83518 -5
        CHANNELS 3 Zrotation Xrotation Yrotation
        End Site
        {
          OFFSET 0 -5 15
        }
      }
    }
  }
  JOINT pelvis_left_femur
  {
    OFFSET 10.78128 -3.44521 -0.5502486
    CHANNELS 3 Zrotation Xrotation Yrotation
    JOINT left_femur_tibia
    {
      OFFSET 0.8047443 -44.0398 -0.1307829
      CHANNELS 3 Zrotation Xrotation Yrotation
      JOINT left_tibia_foot
      {
        OFFSET -4.370144 -48.10324 -4.275266
        CHANNELS 3 Zrotation Xrotation Yrotation
        End Site
        {
          OFFSET 0 -5 15
        }
      }
    }
  }
  JOINT pelvis_spine1
  {
    OFFSET 0 6.468898 -3.129235
    CHANNELS 3 Zrotation Xrotation Yrotation
    JOINT spine1
    {
      OFFSET 0 23.15396 4.99043
      CHANNELS 3 Zrotation Xrotation Yrotation
      JOINT spine2
      {
        OFFSET 0 20.79997 -5.064912
        CHANNELS 3 Zrotation Xrotation Yrotation
        JOINT neck
        {
          OFFSET 0 14.38658 9.616178
          CHANNELS 3 Zrotation Xrotation Yrotation
          End Site
          {
            OFFSET 0 20 0
          }
        }
      }
      JOINT right_manubrium
      {
        OFFSET -5.722621 16.35077 3.967754
        CHANNELS 3 Zrotation Xrotation Yrotation
        JOINT right_clavicle
        {
          OFFSET -13.16364 1.694482 -4.693211
          CHANNELS 3 Zrotation Xrotation Yrotation
          JOINT right_humerus
          {
            OFFSET -28.5034 -0.3100689 -2.792744
            CHANNELS 3 Zrotation Xrotation Yrotation
            JOINT right_radius
            {
              OFFSET -25.15693 0.02248979 -1.271978
              CHANNELS 3 Zrotation Xrotation Yrotation
              End Site
              {
                OFFSET -15 0 0
              }
            }
          }
        }
      }
      JOINT left_manubrium
      {
        OFFSET 5.722621 16.35077 3.967754
        CHANNELS 3 Zrotation Xrotation Yrotation
        JOINT left_clavicle
        {
          OFFSET 13.16364 1.694482 -4.693211
          CHANNELS 3 Zrotation Xrotation Yrotation
          JOINT left_humerus
          {
            OFFSET 29.39168 -1.063119 -2.237045
            CHANNELS 3 Zrotation Xrotation Yrotation
            JOINT left_radius
            {
              OFFSET 24.59957 -0.9528479 0.9047498
              CHANNELS 3 Zrotation Xrotation Yrotation
              End Site
              {
                OFFSET 15 -0 -0
              }
            }
          }
        }
      }
    }
  }
}
MOTION
Frames: 11
Frame Time: 0.0416666666667
0 103.5113 0 0.7973285 -0.9535422 -0.03978009 3.323311 -17.01672 8.131405 -0 35.84056 -0 -5.491455 -16.59626 -3.507769 -6.749077 11.72124 -23.58914 -0 5.001485 -0 4.570721 -19.11275 24.77583 -1.978594 -3.053781 6.078937 2.035061 10.22214 -7.322453 1.092174 21.31319 6.562712 2.841242 -26.66642 9.657316 3.488826 -21.74712 11.43253 86.54124 33.0841 -17.98718 -0 0 18.4501 -11.10993 8.17163 4.891287 7.220503 -20.36789 0.665103 -95.43043 21.8201 24.99621 0 0 -8.98905 14.437 14.26299 -5.036235
0.2628579 103.3723 1.539288 -0.3359579 -0.785309 -0.1853924 4.728995 -20.30494 8.582719 -0 37.25707 -0 -6.289445 -14.84131 -4.187358 -5.791868 11.57241 -22.84208 -0 5.756768 -0 2.395997 -20.63394 23.63081 -2.028752 -2.81917 5.887266 2.138081 10.23624 -7.401915 1.040964 21.21101 6.746115 2.981997 -26.5444 9.595398 3.76876 -21.24615 11.56482 86.63581 33.46807 -18.21968 -0 0 17.67596 -11.11259 8.445984 5.118564 7.046852 -20.41653 0.4376133 -94.89891 21.79573 24.33957 0 0 -9.971699 13.92514 13.87037 -4.315791
0.5167635 103.021 3.420006 -0.5148366 0.2085918 -0.2739077 5.272348 -24.40283 7.927899 -0 32.84673 -0 -6.46489 -12.99726 -3.824139 -5.814138 11.94571 -21.76873 -0 5.660294 -0 3.743763 -21.77696 23.43548 -1.971596 -2.691428 5.423458 2.596548 9.992353 -7.675829 1.120889 21.07057 7.001244 3.028098 -27.37831 10.12298 3.856651 -20.9306 11.56535 87.18041 33.73908 -19.04538 -0 0 16.84545 -9.377813 8.115413 4.320521 7.088859 -20.38079 0.5401829 -94.77692 21.81948 23.66638 0 0 -10.79466 14.82919 13.93347 -5.27931
0.7509988 102.3873 5.825729 -0.6013619 0.9695925 -0.2622431 5.427946 -28.24749 6.606976 -0 27.50686 -0 -6.682785 -10.31026 -3.313063 -5.788648 12.62914 -20.10749 -0 5.841167 -0 4.497673 -22.8367 22.37156 -1.950712 -2.47872 5.011254 2.953946 9.795275 -7.880173 1.135535 20.89244 7.274888 3.13297 -27.83548 10.42048 4.057625 -20.46266 11.61729 87.49211 34.15998 -19.61508 -0 0 15.89934 -8.270703 8.071293 4.022819 7.032597 -20.38474 0.4638133 -94.28218 21.79889 22.78739 0 0 -12.15492 15.1248 13.70142 -5.425095
0.9691692 101.5567 8.700698 -0.6604977 1.874705 -0.1302725 5.664923 -31.37408 5.830104 -0 22.75309 -0 -6.615478 -8.150464 -2.880274 -5.791489 13.29913 -18.90834 -0 6.210532 -0 4.936915 -23.58592 21.35286 -1.948639 -2.199657 4.594506 3.256128 9.627672 -8.069387 1.093013 20.65738 7.615401 3.303856 -28.0611 10.59067 4.298285 -19.8729 11.72225 87.7481 34.66672 -20.11389 -0 0 14.79575 -7.611834 8.231968 4.052653 6.964282 -20.46659 0.2676755 -93.41679 21.63947 21.59358 0 0 -14.06898 15.13173 13.19062 -5.213118
1.166432 100.5827 12.13143 -0.7672274 2.748635 0.1557688 5.954331 -33.92522 5.105362 -0 18.24632 -0 -6.520328 -5.817276 -2.410212 -5.708183 14.08033 -17.63686 -0 7.167648 -0 4.82761 -23.87881 19.85933 -1.944507 -1.920221 4.205632 3.499816 9.485345 -8.242894 1.023819 20.39469 7.947556 3.492258 -28.08756 10.64204 4.560002 -19.23115 11.82679 87.93857 35.19233 -20.57172 -0 0 13.64704 -7.290407 8.540198 4.297499 6.918839 -20.63517 -0.009233029 -92.33236 21.42098 20.21289 0 0 -16.338 14.93002 12.55691 -4.7042
1.344662 99.58825 16.13377 -1.036558 3.595755 0.6107319 6.534993 -35.6366 4.812083 -0 14.95548 -0 -6.48393 -3.756419 -2.023147 -5.463161 14.78919 -16.5394 -0 8.939072 -0 4.005957 -23.53747 18.02698 -1.935744 -1.674119 3.866774 3.674221 9.37804 -8.400539 0.9409957 20.12993 8.244424 3.677517 -27.94994 10.59682 4.795935 -18.60659 11.91646 88.09709 35.65225 -20.99883 -0 0 12.5517 -7.290852 8.935423 4.682985 6.919459 -20.88384 -0.325077 -91.14687 21.1482 18.75087 0 0 -18.72251 14.61271 11.87047 -4.056347
1.505572 98.72088 20.74035 -1.509642 4.299028 1.219086 7.403003 -36.25328 4.855811 -0 13.13444 -0 -6.630583 -2.096531 -1.723217 -5.013448 15.32145 -15.50446 -0 12.01151 -0 2.403382 -22.28509 15.80049 -1.925826 -1.475877 3.599513 3.771457 9.323415 -8.538084 0.8561834 19.89139 8.47399 3.840776 -27.66194 10.4585 4.995534 -18.03516 11.98656 88.23613 35.99675 -21.39006 -0 0 11.57521 -7.599197 9.382166 5.161252 6.95069 -21.18777 -0.6579639 -89.97983 20.85666 17.33488 0 0 -20.97044 14.18212 11.19808 -3.301008
1.657574 98.15565 25.95149 -2.167352 4.745472 1.910366 8.452365 -35.51062 5.152932 -0 12.96322 -0 -7.024149 -1.170753 -1.550778 -4.380173 15.45024 -14.52008 -0 16.90075 -0 0.1278484 -19.94131 13.36013 -1.923288 -1.327299 3.425406 3.783981 9.34238 -8.646128 0.7771156 19.70884 8.617323 3.971265 -27.24631 10.23786 5.150376 -17.55214 12.0438 88.36754 36.18686 -21.72248 -0 0 10.78243 -8.196658 9.84095 5.686681 6.984339 -21.50464 -0.9841414 -88.95937 20.58261 16.11592 0 0 -22.79907 13.63833 10.59269 -2.478897
1.81639 98.06336 31.72107 -2.864741 4.78512 2.541315 9.380165 -33.20547 5.450574 -0 14.10666 -0 -7.626727 -1.187941 -1.527048 -3.683987 14.85231 -13.5107 -0 24.13458 -0 -2.475633 -16.51169 11.0343 -1.937271 -1.218982 3.36184 3.709228 9.451868 -8.711104 0.70888 19.60721 8.664573 4.063882 -26.72832 9.946677 5.26408 -17.18092 12.09989 88.48744 36.21105 -21.95731 -0 0 10.22142 -9.046799 10.27979 6.225081 6.981867 -21.78238 -1.286812 -88.19672 20.36828 15.24024 0 0 -23.96715 12.96794 10.09245 -1.60002
1.99853 98.56698 37.91864 -3.335999 4.306884 2.925703 9.80687 -29.29715 5.501364 -0 15.76172 -0 -8.288235 -2.132161 -1.635312 -3.128252 13.08278 -12.43786 -0 33.77162 -0 -4.879009 -12.39633 9.270852 -1.975171 -1.137786 3.420692 3.547281 9.657587 -8.716176 0.6529982 19.60162 8.619236 4.120496 -26.13501 9.600227 5.34124 -16.93891 12.16595 88.57518 36.08076 -22.04232 -0 0 9.927593 -10.10651 10.67209 6.75695 6.912864 -21.97385 -1.553122 -87.76455 20.24541 14.81611 0 0 -24.32937 12.16871 9.712439 -0.6720444
